<svg version="1.1" xmlns="http://www.w3.org/2000/svg" viewBox="-301.0559999465942 -3703.0403198242184 8717.312109375 4266.240380859374"><desc>Created with Snap</desc><defs></defs><g><g transform="matrix(25.7566,0,0,25.7566,2769.769,-3524.6234)"><g><path d="M78.4,66.5c-5.5,4.8-9.9,15.2-9.9,15.2s-6.9-11.4-12.9-15.3c-9.5-6.1-13.6-6.2-13.6-6.2V65c0,0,7.8,1.2,11.7,4.6   c8.2,7.1,14.8,18.5,14.8,18.5S74.4,75,80.1,70.5C88.1,64.3,95,65,95,65v-4.8C95,60.1,85.1,60.7,78.4,66.5z" fill="#fdc48b" style=""></path><path d="M42,80c-6.4-3.6-17.8-4.3-17.8-4.3s8.7-10.1,10.5-17C37.5,47.9,36.2,44,36.2,44l-4.6,1.6c0,0,1.3,7.7-0.6,12.4   c-4.1,9.9-13,19.8-13,19.8s14.6,1.3,20.7,5.1c8.6,5.4,10.2,12,10.2,12l4.6-1.6C53.5,93.4,49.7,84.4,42,80z" fill="#fdc48b" style=""></path><path d="M35.3,36.8c11.3-0.9,14.6-3.4,14.6-3.4l-3-3.8c0,0-6.9,3.7-12.1,3.4c-10.9-0.6-23.3-5.6-23.3-5.6s3.5,14,1.8,20.9   C10.9,58.2,5,61.8,5,61.8l3,3.8c0,0,7.5-6.5,9.1-15.1c1.3-7.1-1.7-18-1.7-18S28,37.4,35.3,36.8z" fill="#fdc48b" style=""></path><path d="M37.4,17.8c7.3-1.1,16.7-7.4,16.7-7.4s-0.6,13.2,2.4,19.8c4.6,10.2,8,12.5,8,12.5l2.7-4c0,0-5.9-5.2-7.3-10.2   C56.9,18.2,57.7,5,57.7,5s-12.3,7.8-19.5,8.5c-10.2,1-15.6-3.3-15.6-3.3l-2.7,4.1C19.9,14.2,28.6,19.1,37.4,17.8z" fill="#fdc48b" style=""></path><path d="M65,60.5c0,0,3.1-7.2,7.4-10.1c9-6.1,21.9-9.7,21.9-9.7s-11.5-8.9-14.5-15.4c-4.2-9.1-1.9-15.6-1.9-15.6l-4.8-1.2   c0,0-1.9,9.6,2.2,17.4c3.4,6.4,12.5,13.2,12.5,13.2S75,42.9,69.6,47.8c-8.3,7.6-9.4,11.5-9.4,11.5L65,60.5z" fill="#fdc48b" style=""></path></g><desc>Created with Snap</desc><defs></defs></g><g><g transform="matrix(1.024,0,0,-1.024,0,0)"><path d="M264 0L248 683Q177 656 138 599Q99 543 99 461Q99 424 106 409Q113 395 113 393Q59 393 32 415Q6 438 6 490Q6 554 58 614Q111 675 193 712Q275 750 357 750Q371 750 397 748L406 133L616 745L743 745L752 133L962 745L1032 745L754 0L610 0L598 509L408 0L264 0ZM1105 -6Q1031 -6 990 32Q949 71 949 153Q949 222 976 305Q1003 388 1064 448Q1125 509 1219 509Q1329 509 1329 413Q1329 357 1297 310Q1265 263 1212 234Q1159 206 1099 202Q1097 172 1097 162Q1097 113 1114 95Q1131 78 1169 78Q1223 78 1261 103Q1300 128 1346 179L1380 179Q1269 -6 1105 -6ZM1107 250Q1144 252 1177 276Q1211 300 1231 337Q1252 374 1252 415Q1252 456 1227 456Q1191 456 1156 393Q1122 330 1107 250ZM1591 -18Q1528 -18 1480 4Q1432 26 1406 65Q1380 105 1380 157Q1380 201 1398 237Q1417 273 1448 294Q1480 315 1518 315Q1553 315 1577 297Q1601 280 1607 249Q1555 249 1524 221Q1493 194 1493 147Q1493 104 1519 78Q1545 52 1588 52Q1641 52 1675 87Q1710 123 1710 177Q1710 224 1684 266Q1658 308 1606 368Q1552 430 1524 474Q1497 519 1497 572Q1497 624 1526 665Q1555 707 1606 731Q1657 755 1721 755Q1802 755 1850 717Q1899 679 1899 615Q1899 573 1878 547Q1857 521 1823 521Q1785 521 1762 552Q1781 566 1792 589Q1803 612 1803 637Q1803 669 1784 688Q1765 707 1732 707Q1692 707 1666 678Q1641 650 1641 606Q1641 566 1664 531Q1687 497 1736 443Q1776 400 1800 369Q1825 338 1842 297Q1860 257 1860 210Q1860 146 1824 94Q1789 42 1727 12Q1666 -18 1591 -18ZM2277 -6Q2216 -6 2187 26Q2159 59 2159 107Q2159 128 2164 154Q2169 181 2174 206Q2180 231 2182 238Q2190 273 2197 307Q2204 341 2204 362Q2204 413 2168 413Q2142 413 2122 387Q2102 362 2090 321L2022 0L1878 0L2023 680L2171 700L2117 448Q2167 504 2234 504Q2285 504 2315 476Q2345 448 2345 391Q2345 362 2338 326Q2331 291 2318 240Q2310 209 2303 179Q2297 150 2297 133Q2297 113 2306 102Q2315 91 2337 91Q2367 91 2385 112Q2403 134 2421 179L2463 179Q2426 69 2377 31Q2329 -6 2277 -6ZM2541 -6Q2484 -6 2446 33Q2408 72 2408 155Q2408 229 2437 310Q2467 392 2525 448Q2584 505 2665 505Q2706 505 2726 491Q2746 477 2746 454L2746 447L2757 500L2901 500L2829 160Q2825 145 2825 128Q2825 85 2866 85Q2894 85 2914 111Q2935 137 2947 179L2989 179Q2952 71 2897 32Q2843 -6 2788 -6Q2746 -6 2720 17Q2695 41 2690 86Q2661 45 2625 19Q2590 -6 2541 -6ZM2606 91Q2631 91 2655 114Q2680 138 2689 179L2737 405Q2737 418 2727 430Q2717 443 2696 443Q2656 443 2624 396Q2592 350 2574 284Q2556 219 2556 169Q2556 119 2570 105Q2585 91 2606 91ZM2909 0L3015 500L3159 500L3146 438Q3180 468 3207 484Q3235 500 3267 500Q3299 500 3317 478Q3336 456 3336 425Q3336 396 3317 374Q3298 352 3264 352Q3242 352 3234 362Q3227 373 3223 393Q3220 406 3217 412Q3214 418 3206 418Q3185 418 3170 409Q3156 401 3133 380L3053 0L2909 0ZM3466 -6Q3392 -6 3351 32Q3310 71 3310 153Q3310 222 3337 305Q3364 388 3425 448Q3486 509 3580 509Q3690 509 3690 413Q3690 357 3658 310Q3626 263 3573 234Q3520 206 3460 202Q3458 172 3458 162Q3458 113 3475 95Q3492 78 3530 78Q3584 78 3622 103Q3661 128 3707 179L3741 179Q3630 -6 3466 -6ZM3468 250Q3505 252 3538 276Q3572 300 3592 337Q3613 374 3613 415Q3613 456 3588 456Q3552 456 3517 393Q3483 330 3468 250ZM3898 -18Q3807 -18 3760 32Q3714 82 3714 158Q3714 212 3736 266Q3759 321 3801 362Q3843 403 3899 417Q3868 439 3853 470Q3838 502 3838 537Q3838 589 3866 639Q3895 689 3945 720Q3996 752 4057 752Q4120 752 4160 719Q4200 686 4200 627Q4200 583 4178 553Q4156 523 4126 523Q4099 523 4079 550Q4097 556 4110 583Q4123 610 4123 637Q4123 666 4107 679Q4091 693 4068 693Q4039 693 4015 672Q3992 652 3979 619Q3966 587 3966 552Q3966 504 3991 467Q4016 431 4067 418Q4016 407 3975 368Q3934 329 3911 277Q3888 226 3888 179Q3888 134 3911 106Q3935 78 3983 78Q4033 78 4087 105Q4142 133 4168 180L4191 170Q4152 84 4071 33Q3990 -18 3898 -18ZM4280 -6Q4222 -6 4189 23Q4157 53 4157 112Q4157 136 4162 160L4234 500L4378 500L4306 160Q4301 135 4301 124Q4301 91 4335 91Q4381 91 4420 149Q4460 207 4484 287Q4508 367 4508 425Q4506 420 4495 417Q4484 415 4476 415Q4459 415 4449 431Q4440 447 4440 466Q4440 490 4455 505Q4471 520 4502 520Q4535 520 4550 495Q4565 471 4565 433Q4565 343 4534 240Q4503 138 4439 66Q4375 -6 4280 -6ZM4723 -6Q4649 -6 4608 32Q4567 71 4567 153Q4567 222 4594 305Q4621 388 4682 448Q4743 509 4837 509Q4947 509 4947 413Q4947 357 4915 310Q4883 263 4830 234Q4777 206 4717 202Q4715 172 4715 162Q4715 113 4732 95Q4749 78 4787 78Q4841 78 4879 103Q4918 128 4964 179L4998 179Q4887 -6 4723 -6ZM4725 250Q4762 252 4795 276Q4829 300 4849 337Q4870 374 4870 415Q4870 456 4845 456Q4809 456 4774 393Q4740 330 4725 250ZM4926 0L5032 500L5176 500L5163 438Q5197 468 5224 484Q5252 500 5284 500Q5316 500 5334 478Q5353 456 5353 425Q5353 396 5334 374Q5315 352 5281 352Q5259 352 5251 362Q5244 373 5240 393Q5237 406 5234 412Q5231 418 5223 418Q5202 418 5187 409Q5173 401 5150 380L5070 0L4926 0ZM5496 -250Q5448 -250 5416 -225Q5384 -200 5384 -153Q5384 -96 5430 -62Q5476 -27 5547 -4L5559 50Q5530 18 5500 6Q5470 -6 5439 -6Q5391 -6 5361 24Q5332 54 5332 114Q5332 139 5340 179L5408 500L5552 500L5480 160Q5477 148 5477 135Q5477 91 5507 91Q5533 91 5553 113Q5573 136 5585 173L5655 500L5799 500L5700 36Q5748 52 5777 84Q5806 116 5826 179L5868 179Q5841 90 5795 48Q5749 7 5691 -8L5676 -80Q5656 -177 5607 -214Q5558 -250 5496 -250ZM5473 -172Q5490 -172 5506 -149Q5522 -126 5531 -83L5537 -54Q5439 -90 5439 -139Q5439 -152 5448 -162Q5457 -172 5473 -172ZM5925 -6Q5877 -6 5847 24Q5818 54 5818 114Q5818 139 5826 179L5886 460L5853 460L5861 500L5894 500L5924 638L6072 658L6038 500L6098 500L6090 460L6030 460L5966 160Q5962 145 5962 128Q5962 108 5971 99Q5981 91 6003 91Q6032 91 6057 115Q6082 140 6093 179L6135 179Q6098 71 6040 32Q5982 -6 5925 -6ZM6454 -6Q6393 -6 6364 26Q6336 59 6336 107Q6336 128 6341 154Q6346 181 6351 206Q6357 231 6359 238Q6367 273 6374 307Q6381 341 6381 362Q6381 413 6345 413Q6319 413 6299 387Q6279 362 6267 321L6199 0L6055 0L6200 680L6348 700L6294 448Q6344 504 6411 504Q6462 504 6492 476Q6522 448 6522 391Q6522 362 6515 326Q6508 291 6495 240Q6487 209 6480 179Q6474 150 6474 133Q6474 113 6483 102Q6492 91 6514 91Q6544 91 6562 112Q6580 134 6598 179L6640 179Q6603 69 6554 31Q6506 -6 6454 -6ZM6765 554Q6732 554 6709 577Q6686 600 6686 633Q6686 666 6709 689Q6732 713 6765 713Q6798 713 6821 689Q6845 666 6845 633Q6845 600 6821 577Q6798 554 6765 554ZM6697 -6Q6649 -6 6619 24Q6590 54 6590 114Q6590 139 6598 179L6666 500L6810 500L6738 160Q6734 145 6734 128Q6734 108 6743 99Q6753 91 6775 91Q6804 91 6829 115Q6854 140 6865 179L6907 179Q6870 71 6812 32Q6754 -6 6697 -6ZM7226 -6Q7165 -6 7136 26Q7108 59 7108 107Q7108 128 7113 154Q7118 181 7123 206Q7129 231 7131 238Q7139 273 7146 307Q7153 341 7153 362Q7153 413 7117 413Q7091 413 7071 387Q7051 362 7039 321L6971 0L6827 0L6933 500L7077 500L7066 448Q7116 504 7183 504Q7234 504 7264 476Q7294 448 7294 391Q7294 362 7287 326Q7280 291 7267 240Q7259 209 7252 179Q7246 150 7246 133Q7246 113 7255 102Q7264 91 7286 91Q7316 91 7334 112Q7352 134 7370 179L7412 179Q7375 69 7326 31Q7278 -6 7226 -6ZM7547 -250Q7499 -250 7467 -225Q7435 -200 7435 -153Q7435 -96 7481 -62Q7527 -27 7598 -4L7610 49Q7559 -6 7490 -6Q7433 -6 7395 33Q7357 72 7357 155Q7357 229 7386 310Q7416 392 7474 448Q7533 505 7614 505Q7655 505 7675 491Q7695 477 7695 454L7695 448L7706 500L7850 500L7751 36Q7799 52 7828 84Q7857 116 7877 179L7919 179Q7892 90 7846 48Q7800 7 7742 -8L7727 -80Q7707 -177 7658 -214Q7609 -250 7547 -250ZM7555 91Q7578 91 7602 112Q7626 133 7635 169L7686 406Q7686 418 7676 430Q7666 443 7645 443Q7605 443 7573 396Q7541 350 7523 284Q7505 219 7505 169Q7505 119 7519 105Q7534 91 7555 91ZM7524 -172Q7541 -172 7557 -149Q7573 -126 7582 -83L7588 -54Q7490 -90 7490 -139Q7490 -152 7499 -162Q7508 -172 7524 -172Z" fill="#85421e" style=""></path></g></g></g></svg>